<svg width="24" height="24" viewBox="0 0 24 24" fill="none" xmlns="http://www.w3.org/2000/svg">
	<path
		d="M14.8308 8.81736L19.1602 9.45256C19.5235 9.51305 19.8263 9.75503 19.9474 10.118C20.0685 10.4507 19.9776 10.8439 19.7052 11.0859L16.5565 14.2014L17.3134 18.6175C17.3739 18.9805 17.2226 19.3435 16.9198 19.5552C16.617 19.7972 16.2235 19.7972 15.8904 19.6459L12.0151 17.5589L8.10957 19.6459C7.80682 19.7972 7.38296 19.7972 7.11048 19.5552C6.80772 19.3435 6.65634 18.9805 6.71689 18.6175L7.44351 14.2014L4.29484 11.0859C4.02235 10.8439 3.93153 10.4507 4.05263 10.118C4.17373 9.75503 4.47649 9.51305 4.8398 9.45256L9.1995 8.81736L11.1371 4.79445C11.2885 4.46173 11.6216 4.25 12.0151 4.25C12.3784 4.25 12.7115 4.46173 12.8629 4.79445L14.8308 8.81736Z"
		fill="currentColor" />
</svg>

