<svg width="24" height="24" viewBox="0 0 24 24" fill="none" xmlns="http://www.w3.org/2000/svg">
	<path fill-rule="evenodd" clip-rule="evenodd"
		d="M6 2.5C5.46957 2.5 4.96086 2.71071 4.58579 3.08579C4.21071 3.46086 4 3.96957 4 4.5V19.5C4 20.0304 4.21071 20.5391 4.58579 20.9142C4.96086 21.2893 5.46957 21.5 6 21.5H18C18.5304 21.5 19.0391 21.2893 19.4142 20.9142C19.7893 20.5391 20 20.0304 20 19.5V4.5C20 3.96957 19.7893 3.46086 19.4142 3.08579C19.0391 2.71071 18.5304 2.5 18 2.5H13H9H6ZM8 4.5H6L6 19.5H18L18 4.5H14V11.5C14 11.9045 13.7564 12.2691 13.3827 12.4239C13.009 12.5787 12.5789 12.4931 12.2929 12.2071L11 10.9142L9.70711 12.2071C9.42111 12.4931 8.99099 12.5787 8.61732 12.4239C8.24364 12.2691 8 11.9045 8 11.5V4.5ZM12 4.5H10V9.08579L10.2929 8.79289C10.6834 8.40237 11.3166 8.40237 11.7071 8.79289L12 9.08579V4.5Z"
		fill="currentColor" />
</svg>

