<svg width="24" height="24" viewBox="0 0 24 24" fill="none" xmlns="http://www.w3.org/2000/svg">
	<path fill-rule="evenodd" clip-rule="evenodd"
		d="M3.81815 4C3.3663 4 3 4.35817 3 4.8V16.8C3 17.2418 3.3663 17.6 3.81815 17.6H9.54516C9.97914 17.6 10.3953 17.7686 10.7022 18.0686C11.0091 18.3687 11.1815 18.7757 11.1815 19.2C11.1815 19.6418 11.5478 20 11.9996 20C12.4514 20 12.8185 19.6418 12.8185 19.2C12.8185 18.7757 12.9909 18.3687 13.2978 18.0686C13.6047 17.7686 14.0209 17.6 14.4548 17.6H20.1819C20.6337 17.6 21 17.2418 21 16.8V4.8C21 4.35817 20.6337 4 20.1819 4H15.273C14.1881 4 13.1476 4.42143 12.3804 5.17157C12.2426 5.30635 12.1156 5.44976 12 5.60049C11.8844 5.44976 11.7574 5.30635 11.6196 5.17157C10.8524 4.42143 9.81195 4 8.72702 4H3.81815ZM11.1815 8V16.4287C10.6882 16.1503 10.1246 16 9.54516 16H4.63629V5.6H8.72702C9.37797 5.6 10.0023 5.85286 10.4626 6.30294C10.9229 6.75303 11.1815 7.36348 11.1815 8ZM14.4548 16C13.8754 16 13.3118 16.1503 12.8185 16.4287V8C12.8185 7.36348 13.0771 6.75303 13.5374 6.30294C13.9977 5.85286 14.622 5.6 15.273 5.6H19.3637V16H14.4548Z"
		fill="currentColor" />
</svg>

