<svg width="24" height="24" viewBox="0 0 24 24" fill="none" xmlns="http://www.w3.org/2000/svg">
	<path fill-rule="evenodd" clip-rule="evenodd"
		d="M10 2C8.89543 2 8 2.89543 8 4V5C8 6.10457 8.89543 7 10 7H14C15.1046 7 16 6.10457 16 5V4C16 2.89543 15.1046 2 14 2H10ZM10 4H14V5H10V4ZM6 3C5.46957 3 4.96086 3.21071 4.58579 3.58579C4.21071 3.96086 4 4.46957 4 5V20C4 20.5304 4.21071 21.0391 4.58579 21.4142C4.96086 21.7893 5.46957 22 6 22H18C18.5304 22 19.0391 21.7893 19.4142 21.4142C19.7893 21.0391 20 20.5304 20 20V5C20 4.46957 19.7893 3.96086 19.4142 3.58579C19.0391 3.21071 18.5304 3 18 3C17.4477 3 17 3.44772 17 4C17 4.55228 17.4477 5 18 5L18 20H6L6 5C6.55228 5 7 4.55228 7 4C7 3.44772 6.55228 3 6 3ZM14.8001 14.4001C15.1314 14.8419 15.0419 15.4687 14.6001 15.8001L11.9334 17.8001C11.5778 18.0667 11.0889 18.0667 10.7334 17.8001L9.40006 16.8001C8.95823 16.4687 8.86869 15.8419 9.20006 15.4001C9.53143 14.9582 10.1582 14.8687 10.6001 15.2001L11.3334 15.7501L13.4001 14.2001C13.8419 13.8687 14.4687 13.9582 14.8001 14.4001ZM14.6001 10.8001C15.0419 10.4687 15.1314 9.84189 14.8001 9.40006C14.4687 8.95823 13.8419 8.86869 13.4001 9.20006L11.3334 10.7501L10.6001 10.2001C10.1582 9.86869 9.53143 9.95823 9.20006 10.4001C8.86869 10.8419 8.95823 11.4687 9.40006 11.8001L10.7334 12.8001C11.0889 13.0667 11.5778 13.0667 11.9334 12.8001L14.6001 10.8001Z"
		fill="currentColor" />
</svg>

